<?xml version="1.0" encoding="utf-8"?>
<!-- Generator: Adobe Illustrator 23.0.1, SVG Export Plug-In . SVG Version: 6.00 Build 0)  -->
<svg version="1.1" id="Layer_1" xmlns="http://www.w3.org/2000/svg" xmlns:xlink="http://www.w3.org/1999/xlink" x="0px" y="0px"
	 viewBox="0 0 72 72" style="enable-background:new 0 0 72 72;" xml:space="preserve">
<style type="text/css">
	.st0{fill:none;stroke:#086AD8;stroke-width:1.5;stroke-miterlimit:10;}
	.st1{fill:none;stroke:#086AD8;stroke-width:1.5;stroke-linecap:round;stroke-linejoin:round;stroke-miterlimit:10;}
</style>
<path class="st0" d="M17.7,2.3h-1.6c-0.5,0-1,0.4-1,1v3.1c-1.6,0.3-3.1,0.9-4.4,1.8L8.7,6C8.5,5.8,8.2,5.7,8,5.7S7.5,5.8,7.3,6
	L6.1,7c-0.4,0.4-0.4,1,0,1.4l2,2.1C6.9,12,6,13.8,5.7,15.7l-3-0.1l0,0c-0.2,0-0.5,0.1-0.7,0.3s-0.3,0.4-0.3,0.7v1.6c0,0.5,0.4,1,1,1
	l3,0.1c0.2,1.9,0.9,3.7,2,5.3l-2.3,2.2C5,27,4.9,27.3,4.9,27.5c0,0.3,0.1,0.5,0.3,0.7l1.1,1.2c0.2,0.2,0.5,0.3,0.7,0.3
	s0.5-0.1,0.7-0.3l2.2-2.1c1.5,1.2,3.3,2,5.1,2.3v3.1c0,0.5,0.4,1,1,1h1.6c0.5,0,1-0.4,1-1v-3c1.8-0.2,3.5-0.9,5.1-1.9l2.2,2.4
	c0.2,0.2,0.4,0.3,0.7,0.3l0,0c0.2,0,0.5-0.1,0.7-0.3l1.2-1.1c0.2-0.2,0.3-0.4,0.3-0.7c0-0.3-0.1-0.5-0.3-0.7l-2.2-2.3
	c1.3-1.6,2.1-3.3,2.4-5.3l3,0.1l0,0c0.5,0,1-0.4,1-1v-1.6c0-0.3-0.1-0.5-0.3-0.7s-0.4-0.3-0.7-0.3l-3.1-0.1c-0.2-2-1-3.9-2.2-5.5
	l2.1-2.1c0.2-0.2,0.3-0.4,0.3-0.7s-0.1-0.5-0.3-0.7l-1.1-1.2C27.2,6.1,26.9,6,26.7,6S26.2,6.1,26,6.3l-2.2,2.1
	c-1.6-1.2-3.5-1.9-5.5-2.2v-3C18.7,2.7,18.3,2.3,17.7,2.3L17.7,2.3z"/>
<circle class="st1" cx="17.2" cy="18" r="7.5"/>
<circle class="st1" cx="48.2" cy="29" r="11.6"/>
<line class="st1" x1="24.8" y1="70.9" x2="70.9" y2="70.9"/>
<line class="st1" x1="58.5" y1="53.8" x2="58.5" y2="65.4"/>
<line class="st1" x1="36.5" y1="53.8" x2="36.5" y2="65.4"/>
<path class="st1" d="M65.6,65.8H30.1v-11c0-6.2,5-11.2,11.2-11.2h14.3c5.5,0,10,4.5,10,10V65.8z"/>
</svg>
