<?xml version="1.0" encoding="utf-8"?>
<!-- Generator: Adobe Illustrator 23.0.1, SVG Export Plug-In . SVG Version: 6.00 Build 0)  -->
<svg version="1.1" id="Layer_1" xmlns="http://www.w3.org/2000/svg" xmlns:xlink="http://www.w3.org/1999/xlink" x="0px" y="0px"
	 viewBox="0 0 72 72" style="enable-background:new 0 0 72 72;" xml:space="preserve">
<style type="text/css">
	.st0{fill:none;stroke:#086AD8;stroke-width:1.5;stroke-linecap:round;stroke-linejoin:round;stroke-miterlimit:10;}
</style>
<g>
	<path class="st0" d="M1.4,70.9c0,0,0.4-9.3,9.3-12.7c7-2.1,12.8-3.6,12.8-3.6l4.3-5.7v-4"/>
	<polyline class="st0" points="23.5,54.6 30.8,61.2 44,49.1 44,45.2 	"/>
	<line class="st0" x1="27.9" y1="49.4" x2="36.1" y2="56"/>
	<polyline class="st0" points="36.4,56.5 41.1,61.6 48.2,54.7 43.8,49.1 	"/>
	<line class="st0" x1="36" y1="56.5" x2="36" y2="71"/>
	<path class="st0" d="M48.2,54.7c0,0,7.9,2.1,11,3.1s9.6,1.7,11.5,13.2"/>
	<path class="st0" d="M38.4,43.1h9.9c0,0,5.2-0.1,6-6.2"/>
	<path class="st0" d="M48.1,40l1.2-2.7V21.5c0,0-0.8-5.7-7-4.1c-4.1,1.1-5,1.5-7.5,2.5s-6.1,0.8-8.1,0.4c-0.7-0.1-4.4,0.9-4,6.3
		c0,5.5,0,9.4,0,9.4s0.6,6.3,8,11.1c3.1,1.7,8.6,3.6,15-3.7"/>
	<circle class="st0" cx="36.1" cy="43.1" r="2.2"/>
	<path class="st0" d="M19,25.5c-0.8-2-1-3.5-1-5.7c0-9.9,8.1-18,18-18s18,8.1,18,18c0,2.2-0.4,3.8-1.1,5.8"/>
	<path class="st0" d="M22.5,25.8h-3.7c-1.1,0-1.9,0.9-1.9,1.9v7.8c0,1.2,0.9,2.1,2.1,2.1h3.7"/>
	<path class="st0" d="M49.3,25.8H53c1.1,0,1.9,0.9,1.9,1.9v7.8c0,1.2-0.9,2.1-2.1,2.1h-3.7"/>
</g>
</svg>
