<?xml version="1.0" encoding="utf-8"?>
<!-- Generator: Adobe Illustrator 23.0.1, SVG Export Plug-In . SVG Version: 6.00 Build 0)  -->
<svg version="1.1" id="Layer_1" xmlns="http://www.w3.org/2000/svg" xmlns:xlink="http://www.w3.org/1999/xlink" x="0px" y="0px"
	 height="64" width="64" style="enable-background:new 0 0 43.6 72;" xml:space="preserve">
<style type="text/css">
	.st0{fill:none;stroke:#086AD8;stroke-width:1.5;stroke-miterlimit:10;}
	.st1{fill:none;stroke:#086AD8;stroke-width:1.5;stroke-linecap:round;stroke-linejoin:round;stroke-miterlimit:10;}
</style>
<path class="st0" d="M38.2,70.6H5.3c-1.9,0-3.4-1.5-3.4-3.4V4.7c0-1.9,1.5-3.4,3.4-3.4h32.9c1.9,0,3.4,1.5,3.4,3.4v62.5
	C41.6,69.1,40.1,70.6,38.2,70.6z"/>
<line class="st1" x1="18.2" y1="66.9" x2="25.1" y2="66.9"/>
<line class="st1" x1="2" y1="62.6" x2="41.3" y2="62.6"/>
<line class="st1" x1="2" y1="9.8" x2="41.3" y2="9.8"/>
<line class="st1" x1="15.1" y1="5.6" x2="28.2" y2="5.6"/>
<circle class="st1" cx="21.8" cy="36.3" r="16.8"/>
<path class="st1" d="M20.9,23.4l2.1,4c-6.2-3-8.8,2.7-8.8,2.7"/>
<path class="st1" d="M18.8,29.3c0,0,2.7-2.1,4.1-1.9"/>
<path class="st1" d="M19.1,41.4v-8.9c0-0.7,0.6-1.3,1.3-1.3l0,0c0.6,0,1.1,0.5,1.1,1.1v5.8c0,0,1.6-4,2.5,0.1
	c0.2-1.3,2.2-3.5,2.8,0.5c0.4-1.5,2-2.4,2,0.5c0.1,2.4,0,4.5,0,4.5s-0.4,4.1-4.4,4.9c-0.7,0.2-4.5,0.6-6.9-4.5
	c-1-1.6-1.9-3.2-2.5-4.1c-0.3-0.6-0.1-1.4,0.5-1.8l0,0c0.5-0.3,1.1-0.2,1.5,0.3L19.1,41.4z"/>
</svg>
