<?xml version="1.0" encoding="utf-8"?>
<!-- Generator: Adobe Illustrator 23.0.1, SVG Export Plug-In . SVG Version: 6.00 Build 0)  -->
<svg version="1.1" id="Layer_1" xmlns="http://www.w3.org/2000/svg" xmlns:xlink="http://www.w3.org/1999/xlink" x="0px" y="0px"
	 viewBox="0 0 72 72" style="enable-background:new 0 0 72 72;" xml:space="preserve">
<style type="text/css">
	.st0{fill:none;stroke:#086AD8;stroke-width:1.5;stroke-linecap:round;stroke-linejoin:round;stroke-miterlimit:10;}
	.st1{fill:none;stroke:#086AD8;stroke-width:1.5;stroke-miterlimit:10;}
</style>
<path class="st0" d="M40.9,49.5h-10c-1.1,0-2-0.9-2-2v-2.9c0-3.7,3-6.6,6.6-6.6H37c3.3,0,6,2.7,6,6v3.6C42.9,48.6,42,49.5,40.9,49.5
	z"/>
<circle class="st0" cx="36.1" cy="27.5" r="4.9"/>
<path class="st1" d="M36.5,13c0.8,0,1.5,0.7,1.5,1.5v2.3c2.1,0.2,4.1,0.8,6,1.6l1.1-2c0.3-0.5,0.8-0.8,1.3-0.8
	c0.3,0,0.5,0.1,0.8,0.2l0.7,0.4c0.7,0.4,1,1.4,0.6,2.1l-1.1,2c1.7,1.2,3.2,2.7,4.4,4.4l2-1.1c0.2-0.1,0.5-0.2,0.8-0.2
	c0.5,0,1,0.3,1.3,0.8l0.4,0.7c0.4,0.7,0.2,1.7-0.5,2.1l-2,1.1c0.8,1.9,1.4,3.9,1.7,6h2.3l0,0c0.8,0,1.5,0.7,1.5,1.5v0.8
	c0,0.8-0.7,1.5-1.5,1.5h-2.3c-0.2,2.1-0.7,4.2-1.5,6l2,1.1c0.7,0.4,1,1.3,0.6,2.1L56.1,48c-0.3,0.5-0.8,0.8-1.3,0.8
	c-0.3,0-0.5-0.1-0.8-0.2l-2-1.1c-1.2,1.7-2.7,3.2-4.3,4.4l1.2,2c0.4,0.7,0.2,1.7-0.5,2.1l-0.7,0.4c-0.3,0.2-0.5,0.2-0.8,0.2
	c-0.5,0-1-0.3-1.3-0.8l-1.2-2c-2,0.9-4.1,1.5-6.3,1.8v2.3c0,0.8-0.7,1.5-1.5,1.5h-0.8c-0.8,0-1.5-0.7-1.5-1.5v-2.3
	c-2.1-0.2-4.1-0.8-6-1.6L27,56c-0.3,0.5-0.8,0.8-1.3,0.8c-0.3,0-0.5-0.1-0.8-0.2l-0.7-0.4c-0.7-0.4-1-1.4-0.6-2.1l1.1-2
	c-1.7-1.2-3.2-2.7-4.4-4.4l-2,1.2c-0.2,0.1-0.5,0.2-0.8,0.2c-0.5,0-1-0.3-1.3-0.8l-0.4-0.7c-0.4-0.7-0.2-1.7,0.5-2.1l2-1.2
	c-0.9-1.9-1.4-3.9-1.7-6h-2.3l0,0c-0.8,0-1.5-0.7-1.5-1.5V36c0-0.8,0.7-1.5,1.5-1.5h2.3c0.2-2.1,0.7-4.1,1.5-6l-2-1.1
	c-0.7-0.4-1-1.4-0.6-2.1l0.4-0.7c0.3-0.5,0.8-0.8,1.3-0.8c0.3,0,0.5,0.1,0.8,0.2l2,1.1c1.2-1.7,2.7-3.2,4.3-4.4l-1.2-2
	c-0.4-0.7-0.2-1.7,0.5-2.1l0.7-0.4c0.3-0.1,0.5-0.2,0.8-0.2c0.5,0,1,0.3,1.3,0.8l1.2,2c2-0.9,4.1-1.5,6.3-1.8v-2.3
	c0-0.9,0.7-1.5,1.5-1.5L36.5,13"/>
<path class="st0" d="M39.1,4.3c5.7,0.5,11,2.6,15.4,5.7"/>
<path class="st0" d="M33,4.3C33,4.3,33,4.2,33,4.3c0-1.8,1.4-3.1,3-3.1s3,1.4,3,3s-1.4,3-3,3C34.4,7.3,33,5.9,33,4.3"/>
<circle class="st0" cx="4.2" cy="34.7" r="3"/>
<circle class="st0" cx="36.3" cy="67.8" r="3"/>
<circle class="st0" cx="67.8" cy="34.9" r="3"/>
<path class="st0" d="M4.5,31.5c2-14.1,14.1-25.6,28.2-27.2"/>
<path class="st0" d="M32.8,67.7C18,66,5.4,53.2,4.3,38.2"/>
<path class="st0" d="M67.6,38.2C66.4,53.4,55,66.4,39.4,67.8"/>
<path class="st0" d="M60.9,15.9c3.6,4.4,5.8,9.8,6.5,15.4"/>
</svg>
