<?xml version="1.0" encoding="utf-8"?>
<!-- Generator: Adobe Illustrator 23.0.1, SVG Export Plug-In . SVG Version: 6.00 Build 0)  -->
<svg version="1.1" id="Layer_1" xmlns="http://www.w3.org/2000/svg" xmlns:xlink="http://www.w3.org/1999/xlink" x="0px" y="0px"
	 viewBox="0 0 72 49.6" style="enable-background:new 0 0 72 49.6;" xml:space="preserve">
<style type="text/css">
	.st0{fill:none;stroke:#086AD8;stroke-width:1.5;stroke-linecap:round;stroke-linejoin:round;stroke-miterlimit:10;}
</style>
<polyline class="st0" points="37.5,29.5 46,24 37.6,18.6 "/>
<polyline class="st0" points="26.4,29.5 17.9,24 26.3,18.6 "/>
<line class="st0" x1="34.3" y1="16.8" x2="29.3" y2="30.8"/>
<line class="st0" x1="25.7" y1="48.1" x2="43.4" y2="48.1"/>
<line class="st0" x1="31.3" y1="42.2" x2="31.3" y2="47.2"/>
<line class="st0" x1="38.3" y1="42.2" x2="38.3" y2="48"/>
<path class="st0" d="M7.7,26.3v13.2c0,1.4,1.1,2.5,2.5,2.5h51.2"/>
<path class="st0" d="M61.8,14V8.2c0-1.4-1.1-2.5-2.5-2.5H17.7"/>
<path class="st0" d="M5.2,13.9v5.9c0,1.4,1.2,2.6,2.6,2.6l0,0c1.5,0,2.6-1.2,2.6-2.6V14c0,0,8.8-6-0.5-12.2V7c0,1-0.8,1.9-1.9,1.9
	l0,0c-1.3,0-2.3-1-2.3-2.3V1.8C5.7,1.8-3.4,7,5.2,13.9z"/>
<circle class="st0" cx="60.9" cy="27.4" r="3"/>
<path class="st0" d="M68.3,28.6l1.8-0.1L69.9,25L68,25.1c-0.2-0.6-0.5-1.1-0.8-1.6l1.3-1.3L66,19.7L64.7,21
	c-0.6-0.4-1.3-0.7-2.1-0.8v-2h-3.5v2.1c-0.7,0.2-1.3,0.4-1.9,0.8l-1.4-1.3l-2.4,2.5l1.3,1.2c-0.4,0.7-0.7,1.5-0.9,2.3l-1.9,0.1
	l0.2,3.5l1.7-0.1c0.2,0.6,0.4,1.2,0.7,1.7l-1.3,1.3l2.5,2.5l1.2-1.2c0.7,0.4,1.4,0.8,2.2,1v1.8h3.5v-1.7c0.9-0.2,1.8-0.6,2.5-1.1
	l1.3,1.3l2.4-2.5l-1.4-1.3C67.9,30.2,68.1,29.4,68.3,28.6z"/>
</svg>
