<?xml version="1.0" encoding="utf-8"?>
<!-- Generator: Adobe Illustrator 23.0.1, SVG Export Plug-In . SVG Version: 6.00 Build 0)  -->
<svg version="1.1" id="Layer_1" xmlns="http://www.w3.org/2000/svg" xmlns:xlink="http://www.w3.org/1999/xlink" x="0px" y="0px"
	 width="50" height="50" style="enable-background:new 0 0 72 72;" xml:space="preserve">
<style type="text/css">
	.st0{fill:none;stroke:#0095DA;stroke-miterlimit:10;}
</style>
<g>
	<path class="st0" d="M1.42,70.91c0,0,0.38-9.31,9.31-12.68c6.98-2.06,12.81-3.62,12.81-3.62l4.31-5.72v-3.96"/>
	<polyline class="st0" points="23.53,54.61 30.76,61.25 43.95,49.09 43.95,45.01 	"/>
	<line class="st0" x1="27.85" y1="49.6" x2="36.06" y2="56.01"/>
	<polyline class="st0" points="36.38,56.53 41.1,61.63 48.16,54.72 43.7,48.94 	"/>
	<line class="st0" x1="35.97" y1="56.55" x2="35.97" y2="71.03"/>
	<path class="st0" d="M48.16,54.72c0,0,7.89,2.11,10.95,3.09c3.06,0.97,9.59,1.67,11.47,13.21"/>
	<path class="st0" d="M38.03,43.11h10.25c0,0,5.23-0.07,6.04-6.19"/>
	<path class="st0" d="M48.06,40.01l1.18-2.66V21.5c0,0-0.81-5.68-7.01-4.06c-4.06,1.1-5.01,1.47-7.53,2.51s-6.12,0.81-8.11,0.37
		c-0.66-0.15-4.35,0.88-3.98,6.27c0,5.46,0,9.37,0,9.37s0.59,6.34,8.04,11.07c3.1,1.69,8.56,3.62,14.97-3.69"/>
	<circle class="st0" cx="36.08" cy="43.07" r="2.18"/>
	<path class="st0" d="M19.11,25.99c-0.77-1.99-1.15-3.92-1.15-6.18c0-9.94,8.06-18,18-18s18,8.06,18,18c0,2.19-0.39,4.28-1.1,6.23"
		/>
	<path class="st0" d="M22.48,25.78h-3.69c-1.06,0-1.91,0.86-1.91,1.91v7.78c0,1.16,0.94,2.1,2.1,2.1h3.72"/>
	<path class="st0" d="M49.32,25.78H53c1.06,0,1.91,0.86,1.91,1.91v7.78c0,1.16-0.94,2.1-2.1,2.1H49.1"/>
</g>
</svg>
