<?xml version="1.0" encoding="utf-8"?>
<!-- Generator: Adobe Illustrator 22.0.0, SVG Export Plug-In . SVG Version: 6.00 Build 0)  -->
<svg version="1.1" id="Layer_1" xmlns="http://www.w3.org/2000/svg" xmlns:xlink="http://www.w3.org/1999/xlink" x="0px" y="0px"
	 viewBox="0 0 72 66.8" style="enable-background:new 0 0 72 66.8;" xml:space="preserve">
<style type="text/css">
	.st0{fill:none;stroke:#086AD8;stroke-width:1.5;stroke-linecap:round;stroke-linejoin:round;stroke-miterlimit:10;}
	.st1{fill:none;stroke:#086AD8;stroke-width:1.5;stroke-miterlimit:10;}
	.st2{fill:#086AD8;}
</style>
<path class="st0" d="M58.3,17c-0.3-2.1-1.2-4.1-2.4-5.8l2-2.9L55.6,6l-3.1,2c-1.7-1.2-3.6-2-5.7-2.3l-0.7-3.5L42.8,2L42,5.7
	c-2,0.4-3.8,1.1-5.4,2.2l-3.2-2.2L31.1,8l2.1,3.2c-1.1,1.6-2,3.5-2.3,5.5l-3.8,0.7v3.3l3.8,0.8c0.3,2,1.1,4,2.2,5.6L31,30.2l2.3,2.4
	l3.1-2.1c1.6,1.2,3.5,2,5.6,2.4l0.7,3.6H46l0.7-3.6c2.1-0.3,4-1.1,5.7-2.3l2.8,2l2.4-2.3l-1.9-3c1.2-1.7,2.1-3.6,2.5-5.8l3.4-0.6
	l0.1-3.3L58.3,17z"/>
<path class="st1" d="M44.3,9.7c5.3,0,9.7,4.3,9.7,9.7S49.7,29,44.3,29c-5.3,0-9.7-4.3-9.7-9.7S39,9.7,44.3,9.7"/>
<line class="st0" x1="46.6" y1="14.7" x2="42.3" y2="23.7"/>
<polyline class="st0" points="41,21.6 38.2,19.3 41,16.9 "/>
<polyline class="st0" points="47.5,21.6 50.4,19.3 47.6,16.9 "/>
<line class="st1" x1="2.1" y1="50.8" x2="69.9" y2="50.8"/>
<path class="st0" d="M60.3,13h7.4c1.5,0,2.7,1.2,2.7,2.7v38.5c0,1.5-1.2,2.7-2.7,2.7H4.3c-1.5,0-2.7-1.2-2.7-2.7V15.8
	c0-1.5,1.2-2.7,2.7-2.7h24.6"/>
<line class="st1" x1="28.7" y1="56.8" x2="22.9" y2="64.9"/>
<line class="st1" x1="43.1" y1="57" x2="48.9" y2="65"/>
<line class="st0" x1="18.6" y1="64.9" x2="52.7" y2="64.9"/>
<polyline class="st0" points="6,40.7 8,47.7 10.5,40.7 12.8,47.7 15,40.7 "/>
<polyline class="st0" points="17.6,40.7 19.7,47.7 22.2,40.7 24.5,47.7 26.7,40.7 "/>
<polyline class="st0" points="29.6,40.7 31.6,47.7 34.1,40.7 36.4,47.7 38.6,40.7 "/>
<circle class="st2" cx="40.1" cy="47.1" r="0.8"/>
</svg>
