<?xml version="1.0" encoding="utf-8"?>
<!-- Generator: Adobe Illustrator 23.0.1, SVG Export Plug-In . SVG Version: 6.00 Build 0)  -->
<svg version="1.1" id="Layer_1" xmlns="http://www.w3.org/2000/svg" xmlns:xlink="http://www.w3.org/1999/xlink" x="0px" y="0px"
	 height="64" width="64" style="enable-background:new 0 0 43.56 72;" xml:space="preserve">
<style type="text/css">
	.st0{fill:none;stroke:#0095DA;stroke-miterlimit:10;}
	.st1{fill:none;stroke:#0095DA;stroke-linecap:round;stroke-linejoin:round;stroke-miterlimit:10;}
</style>
<g>
	<path class="st0" d="M38.23,70.65H5.33c-1.87,0-3.4-1.53-3.4-3.4V4.75c0-1.87,1.53-3.4,3.4-3.4h32.91c1.87,0,3.4,1.53,3.4,3.4
		v62.51C41.64,69.12,40.11,70.65,38.23,70.65z"/>
	<line class="st1" x1="18.18" y1="66.91" x2="25.13" y2="66.91"/>
	<line class="st1" x1="2" y1="62.61" x2="41.31" y2="62.61"/>
	<line class="st1" x1="2" y1="9.78" x2="41.31" y2="9.78"/>
	<line class="st1" x1="15.13" y1="5.63" x2="28.18" y2="5.63"/>
	<circle class="st1" cx="21.8" cy="36.28" r="16.76"/>
	<path class="st1" d="M20.85,23.42l2.13,3.95c-6.17-2.96-8.83,2.7-8.83,2.7"/>
	<path class="st1" d="M18.76,29.34c0,0,2.71-2.12,4.11-1.85"/>
	<path class="st1" d="M19.07,41.38v-8.93c0-0.69,0.56-1.25,1.25-1.25l0,0c0.62,0,1.13,0.51,1.13,1.13v5.84c0,0,1.57-4.01,2.49,0.11
		c0.22-1.35,2.22-3.52,2.76,0.49c0.43-1.46,1.95-2.38,2,0.49c0.06,2.44,0,4.49,0,4.49s-0.37,4.11-4.44,4.87
		c-0.7,0.16-4.49,0.59-6.93-4.55c-1.03-1.6-1.92-3.15-2.47-4.14c-0.34-0.61-0.14-1.38,0.47-1.76l0,0c0.5-0.31,1.15-0.18,1.5,0.28
		L19.07,41.38z"/>
</g>
</svg>
