<?xml version="1.0" encoding="utf-8"?>
<!-- Generator: Adobe Illustrator 23.0.1, SVG Export Plug-In . SVG Version: 6.00 Build 0)  -->
<svg version="1.1" id="Layer_1" xmlns="http://www.w3.org/2000/svg" xmlns:xlink="http://www.w3.org/1999/xlink" x="0px" y="0px"
	 width="64" height="64" style="enable-background:new 0 0 72 72;" xml:space="preserve">
<style type="text/css">
	.st0{fill:none;stroke:#0095DA;stroke-linecap:round;stroke-linejoin:round;stroke-miterlimit:10;}
	.st1{fill:#0095DA;}
	.st2{fill:#FFFFFF;stroke:#0095DA;stroke-linecap:round;stroke-linejoin:round;stroke-miterlimit:10;}
</style>
<g>
	<path class="st0" d="M40.93,49.47H30.87c-1.11,0-2.01-0.9-2.01-2.01v-2.88c0-3.66,2.97-6.63,6.63-6.63H37
		c3.28,0,5.95,2.66,5.95,5.95v3.57C42.94,48.56,42.04,49.47,40.93,49.47z"/>
	<circle class="st0" cx="36.13" cy="27.55" r="4.9"/>
	<g>
		<path class="st1" d="M36.55,13.02c0.85,0,1.53,0.69,1.53,1.53v2.26c2.12,0.21,4.13,0.77,6,1.61l1.13-1.97
			c0.28-0.49,0.8-0.77,1.33-0.77c0.26,0,0.52,0.07,0.76,0.2l0.74,0.42c0.73,0.42,0.99,1.36,0.57,2.09l-1.13,1.97
			c1.69,1.21,3.18,2.69,4.41,4.37l1.96-1.15c0.24-0.14,0.51-0.21,0.77-0.21c0.53,0,1.04,0.27,1.32,0.76l0.43,0.73
			c0.43,0.73,0.18,1.67-0.55,2.1l-1.96,1.15c0.85,1.86,1.43,3.87,1.66,5.98l2.26-0.02c0,0,0.01,0,0.01,0c0.84,0,1.52,0.68,1.53,1.52
			l0.01,0.85c0.01,0.85-0.67,1.54-1.52,1.55l-2.26,0.02c-0.19,2.12-0.72,4.15-1.54,6.02l1.97,1.11c0.74,0.41,1,1.35,0.59,2.09
			l-0.42,0.74c-0.28,0.5-0.8,0.78-1.34,0.78c-0.25,0-0.51-0.06-0.75-0.2l-1.98-1.11c-1.2,1.7-2.67,3.2-4.34,4.44l1.17,1.95
			c0.43,0.73,0.2,1.67-0.53,2.1l-0.73,0.44c-0.25,0.15-0.52,0.22-0.78,0.22c-0.52,0-1.03-0.27-1.32-0.75l-1.17-1.95
			c-1.95,0.92-4.07,1.54-6.32,1.76v2.26c0,0.85-0.69,1.53-1.53,1.53H35.7c-0.85,0-1.53-0.69-1.53-1.53v-2.26
			c-2.12-0.21-4.13-0.77-6-1.61l-1.13,1.97c-0.28,0.49-0.8,0.77-1.33,0.77c-0.26,0-0.52-0.07-0.76-0.2l-0.74-0.42
			c-0.73-0.42-0.99-1.36-0.57-2.09l1.13-1.97c-1.69-1.21-3.18-2.69-4.41-4.37l-1.96,1.15c-0.24,0.14-0.51,0.21-0.77,0.21
			c-0.53,0-1.04-0.27-1.32-0.76l-0.43-0.73c-0.43-0.73-0.18-1.67,0.55-2.1l1.96-1.15c-0.85-1.86-1.43-3.87-1.66-5.98l-2.26,0.02
			c0,0-0.01,0-0.01,0c-0.84,0-1.52-0.68-1.53-1.52l-0.01-0.85c-0.01-0.85,0.67-1.54,1.52-1.55l2.26-0.02
			c0.19-2.12,0.72-4.15,1.54-6.02l-1.97-1.11c-0.74-0.41-1-1.35-0.59-2.09l0.42-0.74c0.28-0.5,0.8-0.78,1.34-0.78
			c0.25,0,0.51,0.06,0.75,0.2l1.98,1.11c1.2-1.7,2.67-3.2,4.34-4.44l-1.17-1.95c-0.43-0.73-0.2-1.67,0.53-2.1l0.73-0.44
			c0.25-0.15,0.52-0.22,0.78-0.22c0.52,0,1.03,0.27,1.32,0.75l1.17,1.95c1.95-0.92,4.07-1.54,6.32-1.76v-2.26
			c0-0.85,0.69-1.53,1.53-1.53H36.55 M36.55,12.02H35.7c-1.4,0-2.53,1.14-2.53,2.53v1.37c-1.67,0.24-3.32,0.7-4.91,1.37l-0.71-1.19
			c-0.45-0.76-1.29-1.23-2.17-1.23c-0.46,0-0.9,0.12-1.3,0.36l-0.73,0.44c-0.58,0.35-0.99,0.9-1.16,1.55
			c-0.17,0.66-0.07,1.34,0.28,1.92l0.71,1.2c-1.23,1-2.34,2.14-3.3,3.38l-1.21-0.68c-0.38-0.21-0.81-0.32-1.24-0.32
			c-0.91,0-1.76,0.5-2.21,1.29l-0.42,0.74c-0.68,1.22-0.25,2.76,0.97,3.45l1.2,0.67c-0.57,1.48-0.96,3.01-1.17,4.59l-1.38,0.01
			c-0.68,0.01-1.31,0.28-1.78,0.76c-0.47,0.48-0.73,1.12-0.73,1.8l0.01,0.85c0.01,1.38,1.15,2.51,2.53,2.51l1.4-0.01
			c0.24,1.55,0.67,3.08,1.27,4.56l-1.2,0.7c-0.58,0.34-1,0.89-1.17,1.54c-0.17,0.65-0.08,1.34,0.26,1.92l0.43,0.73
			c0.45,0.77,1.29,1.25,2.19,1.25c0.45,0,0.89-0.12,1.28-0.35l1.2-0.7c0.99,1.24,2.11,2.35,3.36,3.33l-0.69,1.21
			c-0.69,1.21-0.27,2.76,0.94,3.46l0.74,0.42c0.38,0.22,0.82,0.34,1.26,0.34c0.91,0,1.75-0.49,2.2-1.27l0.69-1.2
			c1.49,0.59,3.02,1,4.57,1.23v1.37c0,1.4,1.14,2.53,2.53,2.53h0.85c1.4,0,2.53-1.14,2.53-2.53v-1.37c1.67-0.24,3.32-0.7,4.91-1.37
			l0.71,1.19c0.45,0.76,1.29,1.23,2.17,1.23c0.46,0,0.9-0.12,1.3-0.36l0.73-0.44c0.58-0.35,0.99-0.9,1.16-1.55
			c0.17-0.66,0.07-1.34-0.28-1.92l-0.71-1.2c1.24-1,2.34-2.14,3.3-3.38l1.21,0.68c0.38,0.21,0.81,0.32,1.24,0.32
			c0.92,0,1.76-0.5,2.21-1.29l0.42-0.74c0.68-1.22,0.25-2.76-0.97-3.45l-1.2-0.67c0.57-1.48,0.96-3.01,1.17-4.59L57.83,39
			c1.4-0.01,2.52-1.16,2.51-2.55l-0.01-0.85c-0.01-1.38-1.15-2.51-2.53-2.51l-1.4,0.01c-0.24-1.55-0.67-3.08-1.27-4.56l1.2-0.7
			c0.58-0.34,1-0.89,1.17-1.54c0.17-0.65,0.08-1.34-0.26-1.92l-0.43-0.73c-0.45-0.77-1.29-1.25-2.19-1.25
			c-0.45,0-0.89,0.12-1.28,0.35l-1.2,0.7c-0.99-1.24-2.11-2.35-3.36-3.33l0.69-1.21c0.34-0.59,0.42-1.27,0.25-1.92
			c-0.18-0.65-0.6-1.2-1.18-1.53l-0.74-0.42c-0.38-0.22-0.82-0.34-1.26-0.34c-0.91,0-1.75,0.49-2.2,1.27l-0.69,1.2
			c-1.49-0.59-3.02-1-4.57-1.23v-1.37C39.08,13.16,37.94,12.02,36.55,12.02L36.55,12.02z"/>
	</g>
	<path class="st0" d="M60.89,15.9c4.53,5.52,7.25,12.59,7.25,20.29c0,17.67-14.33,32-32,32s-32-14.33-32-32s14.33-32,32-32
		c6.85,0,13.2,2.15,18.41,5.82"/>
	<circle class="st2" cx="36.02" cy="4.22" r="3.04"/>
	<circle class="st2" cx="4.23" cy="34.71" r="3.04"/>
	<circle class="st2" cx="36.32" cy="67.78" r="3.04"/>
	<circle class="st2" cx="67.77" cy="34.88" r="3.04"/>
</g>
</svg>
