<?xml version="1.0" encoding="utf-8"?>
<!-- Generator: Adobe Illustrator 23.0.1, SVG Export Plug-In . SVG Version: 6.00 Build 0)  -->
<svg version="1.1" id="Layer_1" xmlns="http://www.w3.org/2000/svg" xmlns:xlink="http://www.w3.org/1999/xlink" x="0px" y="0px"
	 viewBox="0 0 72 49.64" style="enable-background:new 0 0 72 49.64;" xml:space="preserve">
<style type="text/css">
	.st0{fill:none;stroke:#0095DA;stroke-linecap:round;stroke-linejoin:round;stroke-miterlimit:10;}
	.st1{fill:#0095DA;}
</style>
<g>
	<polyline class="st0" points="37.48,29.47 45.99,23.99 37.57,18.6 	"/>
	<polyline class="st0" points="26.41,29.47 17.89,23.99 26.31,18.6 	"/>
	<line class="st0" x1="34.35" y1="16.84" x2="29.25" y2="30.85"/>
	<line class="st0" x1="25.73" y1="48.14" x2="43.41" y2="48.14"/>
	<line class="st0" x1="31.28" y1="42.23" x2="31.28" y2="47.22"/>
	<line class="st0" x1="38.26" y1="42.23" x2="38.26" y2="47.97"/>
	<path class="st0" d="M7.66,25.63v13.95c0,1.4,1.14,2.54,2.54,2.54h51.21"/>
	<path class="st0" d="M61.78,14.05V8.23c0-1.4-1.14-2.54-2.54-2.54h-42.2"/>
	<path class="st0" d="M5.17,13.88v5.95c0,1.42,1.15,2.56,2.56,2.56l0,0c1.45,0,2.63-1.17,2.63-2.63v-5.81c0,0,8.75-5.91-0.49-12.12
		v5.2c0,1.03-0.84,1.87-1.87,1.87l0,0c-1.26,0-2.28-1.02-2.28-2.28V1.5C5.73,1.5-3.41,7.04,5.17,13.88z"/>
	<g>
		<path class="st1" d="M62.2,18.37v1.77c1.07,0.18,2.07,0.59,2.94,1.19l1.21-1.24l1.78,1.74l-1.21,1.24
			c0.63,0.85,1.07,1.85,1.3,2.93l1.68-0.04l0.07,2.49l-1.7,0.04c-0.16,1.1-0.55,2.13-1.14,3.01l1.22,1.13l-1.7,1.83l-1.24-1.14
			c-0.93,0.71-2.03,1.2-3.22,1.41v1.53H59.7v-1.53c-1.09-0.19-2.09-0.6-2.96-1.21l-1.09,1.12l-1.78-1.74l1.1-1.13
			c-0.62-0.85-1.06-1.83-1.27-2.9l-1.61,0.04l-0.07-2.49l1.61-0.04c0.16-1.07,0.53-2.07,1.1-2.95l-1.2-1.11l1.7-1.83l1.19,1.1
			c0.94-0.73,2.06-1.24,3.29-1.45v-1.77h2.5 M62.2,17.26h-2.49c-0.61,0-1.11,0.5-1.11,1.11v0.9c-0.73,0.21-1.43,0.52-2.08,0.92
			l-0.54-0.5c-0.21-0.2-0.49-0.3-0.75-0.3c-0.3,0-0.6,0.12-0.81,0.35l-1.7,1.83c-0.2,0.21-0.31,0.5-0.29,0.8
			c0.01,0.3,0.14,0.58,0.35,0.78l0.55,0.51c-0.27,0.52-0.47,1.07-0.61,1.64L52,25.32c-0.61,0.01-1.1,0.52-1.07,1.14l0.07,2.49
			c0.01,0.3,0.13,0.58,0.34,0.78c0.21,0.2,0.48,0.3,0.76,0.3c0.01,0,0.02,0,0.03,0L52.85,30c0.18,0.57,0.42,1.11,0.71,1.63
			l-0.48,0.5c-0.43,0.44-0.42,1.14,0.02,1.56l1.78,1.74c0.21,0.2,0.49,0.31,0.78,0.31h0.01c0.3,0,0.58-0.12,0.78-0.33l0.48-0.49
			c0.53,0.29,1.1,0.51,1.68,0.69v0.64c0,0.61,0.5,1.11,1.11,1.11h2.49c0.61,0,1.11-0.5,1.11-1.11v-0.64c0.71-0.2,1.39-0.5,2.02-0.88
			l0.6,0.54c0.21,0.2,0.49,0.3,0.75,0.3c0.3,0,0.6-0.12,0.81-0.35l1.7-1.83c0.2-0.21,0.31-0.5,0.29-0.8
			c-0.01-0.29-0.14-0.58-0.35-0.78l-0.58-0.53c0.28-0.54,0.5-1.12,0.64-1.72L70,29.55c0.61-0.01,1.1-0.52,1.07-1.14l-0.07-2.48
			c-0.01-0.3-0.13-0.58-0.34-0.78c-0.21-0.2-0.48-0.3-0.76-0.3c-0.01,0-0.02,0-0.03,0l-0.81,0.02c-0.18-0.58-0.43-1.13-0.73-1.66
			l0.6-0.61c0.43-0.44,0.42-1.14-0.02-1.56l-1.78-1.74c-0.21-0.2-0.49-0.31-0.78-0.31h-0.01c-0.3,0-0.58,0.12-0.78,0.33l-0.6,0.61
			c-0.52-0.28-1.07-0.5-1.65-0.66v-0.9C63.31,17.76,62.81,17.26,62.2,17.26L62.2,17.26z"/>
	</g>
	<circle class="st0" cx="60.92" cy="27.4" r="2.96"/>
</g>
</svg>
